<svg width="16" height="16" viewBox="0 0 16 16" fill="none" xmlns="http://www.w3.org/2000/svg">
<g id="Property 1=Component 547">
<g id="Component 540">
<path id="Rectangle 2308" d="M0 4C0 1.79086 1.79086 0 4 0H12C14.2091 0 16 1.79086 16 4V12C16 14.2091 14.2091 16 12 16H4C1.79086 16 0 14.2091 0 12V4Z" fill="#288034"/>
<path id="Vector" d="M4.6123 11.7342L7.06535 7.99043L4.8186 4.26758H6.62662L7.85315 6.64714C7.96586 6.87276 8.04333 7.04126 8.08558 7.15226H8.10139C8.1828 6.97182 8.26727 6.79648 8.35538 6.62648L9.66634 4.26758H11.3261L9.02134 7.9698L11.3844 11.7342H9.61864L8.20194 9.12038C8.14208 9.02344 8.08558 8.90702 8.03272 8.77147H8.01175C7.98714 8.85497 7.93245 8.96778 7.84798 9.1099L6.38875 11.7342H4.6123Z" fill="white"/>
</g>
</g>
</svg>
