<svg width="16" height="16" viewBox="0 0 16 16" fill="none" xmlns="http://www.w3.org/2000/svg">
<g id="Property 1=Component 546">
<g id="Component 542">
<path id="Intersect" d="M13.9998 14C13.9998 15.1046 13.1043 16 11.9998 16H3.99976C2.89519 16 1.99976 15.1046 1.99976 14V2C1.99976 0.895431 2.89519 0 3.99976 0H9.17133C9.70176 0 10.2105 0.210714 10.5855 0.585786L13.414 3.41421C13.789 3.78929 13.9998 4.29799 13.9998 4.82843V14Z" fill="#8F8F8F"/>
<path id="Intersect_2" d="M9.49976 0.0270996V3.49996C9.49976 4.05224 9.94747 4.49996 10.4998 4.49996H13.9726C13.9046 4.09133 13.7107 3.71092 13.414 3.41417L10.5855 0.585744C10.2888 0.288993 9.90839 0.0951252 9.49976 0.0270996Z" fill="#C7C7C7"/>
<g id="Vector">
<path d="M4.5 9.62476C4.5 9.27958 4.77982 8.99976 5.125 8.99976H10.875C11.2202 8.99976 11.5 9.27958 11.5 9.62476C11.5 9.96993 11.2202 10.2498 10.875 10.2498H5.125C4.77982 10.2498 4.5 9.96993 4.5 9.62476Z" fill="#EEEEEE"/>
<path d="M4.5 12.3748C4.5 12.0296 4.77982 11.7498 5.125 11.7498H8.875C9.22018 11.7498 9.5 12.0296 9.5 12.3748C9.5 12.7199 9.22018 12.9998 8.875 12.9998H5.125C4.77982 12.9998 4.5 12.7199 4.5 12.3748Z" fill="#EEEEEE"/>
</g>
</g>
</g>
</svg>
