<svg width="16" height="16" viewBox="0 0 16 16" fill="none" xmlns="http://www.w3.org/2000/svg">
<g id="Property 1=Component 545">
<g id="Component 542">
<path id="Rectangle 2308" d="M0 4C0 1.79086 1.79086 0 4 0H12C14.2091 0 16 1.79086 16 4V12C16 14.2091 14.2091 16 12 16H4C1.79086 16 0 14.2091 0 12V4Z" fill="#D50B0B"/>
<g id="Vector">
<path d="M12.1588 8.60497V10.5264H10.9746V5.47266H14.25V6.59018H12.1455V7.48745H13.7158V8.60497H12.1588Z" fill="white"/>
<path fill-rule="evenodd" clip-rule="evenodd" d="M10.1085 8.8668C10.1085 9.19225 10.034 9.48233 9.88232 9.73396C9.73543 9.98475 9.52579 10.1818 9.25823 10.3227C8.99375 10.4596 8.68522 10.5264 8.33558 10.5264H6.66273V5.47266H8.33558C8.68509 5.47266 8.99384 5.53951 9.25825 5.67634C9.52604 5.81269 9.73465 6.00652 9.88165 6.25727L9.88223 6.25821C10.0343 6.50587 10.1085 6.79618 10.1085 7.12554V8.8668ZM7.84693 6.59018V9.40884H8.33558C8.52204 9.40884 8.66262 9.35665 8.76682 9.25989C8.87019 9.16391 8.9243 9.03611 8.9243 8.8668V7.12554C8.9243 6.9614 8.87067 6.83555 8.76682 6.73912C8.66262 6.64236 8.52204 6.59018 8.33558 6.59018H7.84693Z" fill="white"/>
<path fill-rule="evenodd" clip-rule="evenodd" d="M3.4342 8.75174V10.5264H2.25V5.47266H4.0029C4.35671 5.47266 4.66966 5.53944 4.93833 5.67604C5.21028 5.81211 5.42186 6.00415 5.56926 6.25103C5.72137 6.4986 5.79583 6.78679 5.79583 7.1122C5.79583 7.43384 5.72055 7.72277 5.56863 7.9744C5.41704 8.22066 5.2062 8.41207 4.93846 8.54829C4.66969 8.68504 4.3569 8.75174 4.0029 8.75174H3.4342ZM4.61163 7.1122C4.61163 6.93877 4.55558 6.80936 4.44867 6.71351L4.44587 6.71089C4.34229 6.61121 4.19831 6.55682 4.0029 6.55682H3.4342V7.66758H4.0029C4.19942 7.66758 4.34402 7.61469 4.4475 7.51863C4.55558 7.41795 4.61163 7.28552 4.61163 7.1122Z" fill="white"/>
</g>
</g>
</g>
</svg>
