<svg width="16" height="16" viewBox="0 0 16 16" fill="none" xmlns="http://www.w3.org/2000/svg">
<g id="Property 1=Component 544">
<g id="Component 542">
<path id="Rectangle 2308" d="M0 4C0 1.79086 1.79086 0 4 0H12C14.2091 0 16 1.79086 16 4V12C16 14.2091 14.2091 16 12 16H4C1.79086 16 0 14.2091 0 12V4Z" fill="#D03706"/>
<path id="Vector" d="M8.29546 4.27458C9.02582 4.22529 9.74988 4.43744 10.3382 4.87307C10.8288 5.31111 11.091 5.95031 11.0492 6.60672C11.0573 7.06303 10.9357 7.51225 10.6986 7.90222C10.4586 8.28548 10.1128 8.5911 9.70295 8.78221C9.2344 9.00012 8.72213 9.10772 8.2055 9.09675H6.78639V11.7342H5.33301V4.27458H8.29546ZM6.78517 7.9573H8.036C8.43255 7.98642 8.826 7.86906 9.1418 7.62746C9.403 7.3769 9.53991 7.02356 9.5157 6.66242C9.5157 5.84036 9.03797 5.42933 8.08252 5.42933H6.78519V7.9573H6.78517Z" fill="white"/>
</g>
</g>
</svg>
