<svg width="16" height="16" viewBox="0 0 16 16" fill="none" xmlns="http://www.w3.org/2000/svg">
<g id="Property 1=Component 548">
<g id="Component 539">
<path id="Rectangle 2308" d="M0 4C0 1.79086 1.79086 0 4 0H12C14.2091 0 16 1.79086 16 4V12C16 14.2091 14.2091 16 12 16H4C1.79086 16 0 14.2091 0 12V4Z" fill="#0968F6"/>
<path id="Vector" d="M5.83771 9.91659C5.86014 10.0938 5.8747 10.2481 5.8817 10.3801H5.90756C5.91794 10.255 5.93773 10.1042 5.96698 9.92705C5.99624 9.75019 6.02478 9.60089 6.05241 9.47939L7.25183 4.26721H8.80293L10.0438 9.40129C10.1059 9.65475 10.1576 9.97734 10.1989 10.3697H10.2196C10.2368 10.0988 10.2799 9.78644 10.3488 9.43241L11.3416 4.26721H12.753L11.0159 11.7339H9.36646L8.18248 6.78741C8.148 6.64497 8.10924 6.45946 8.06614 6.23023C8.02303 6.00131 7.99632 5.83464 7.98604 5.73051H7.9654C7.95159 5.85201 7.92485 6.03243 7.88517 6.27184C7.8455 6.51152 7.81356 6.68838 7.7895 6.80299L6.67788 11.7339H5.00273L3.25 4.26721H4.6873L5.76803 9.48987C5.79209 9.59729 5.81528 9.73974 5.83771 9.91659Z" fill="white"/>
</g>
</g>
</svg>
