<svg width="69" height="28" viewBox="0 0 69 28" fill="none" xmlns="http://www.w3.org/2000/svg">
<g id="ebay-logo">
<path id="Fill 1" fill-rule="evenodd" clip-rule="evenodd" d="M51.3932 19.1901C51.3932 20.2088 51.4223 21.2144 51.5102 22.12H48.2937C48.2079 21.3743 48.1766 20.6334 48.1766 19.9148C46.4377 22.0789 44.3694 22.7011 41.5001 22.7011C37.2443 22.7011 34.9658 20.4239 34.9658 17.7896C34.9658 13.9747 38.0649 12.6296 43.4451 12.5048C44.9164 12.4708 46.569 12.4657 47.9354 12.4657L47.9351 12.093C47.9351 9.53904 46.3175 8.48892 43.5145 8.48892C41.4336 8.48892 39.8998 9.36073 39.7419 10.8672H36.1089C36.4933 7.11099 40.3915 6.16089 43.8189 6.16089C47.925 6.16089 51.3932 7.63996 51.3932 12.0369V19.1901ZM43.6824 14.8519C40.5471 14.9559 38.5991 15.5287 38.5991 17.6194C38.5991 18.9731 39.6649 20.4405 42.3708 20.4405C45.9986 20.4405 47.9351 18.4385 47.9351 15.1548L47.9354 14.7936C46.6635 14.7936 45.095 14.8051 43.6824 14.8519Z" fill="#FFBD14"/>
<path id="Fill 3" fill-rule="evenodd" clip-rule="evenodd" d="M3.52137 15.3169C3.708 18.4942 5.8722 20.3735 8.84796 20.3735C10.9097 20.3735 12.7437 19.5231 13.3578 17.6728H16.924C16.2304 21.4268 12.2905 22.7011 8.89907 22.7011C2.73282 22.7011 0 19.2629 0 14.6265C0 9.52246 2.82663 6.161 8.95538 6.161C13.8336 6.161 17.4078 8.74562 17.4078 14.387V15.3169H3.52137ZM13.775 12.989C13.6408 9.71431 11.3061 8.48892 8.8109 8.48892C6.12034 8.48892 3.97218 9.86731 3.59593 12.989H13.775Z" fill="#F02D2D"/>
<path id="Fill 5" fill-rule="evenodd" clip-rule="evenodd" d="M17.4031 0H20.8602L20.8599 8.79336C22.5542 6.74935 24.8887 6.15587 27.1865 6.15587C31.0391 6.15587 35.3182 8.78787 35.3182 14.4708C35.3182 19.2296 31.915 22.6959 27.1222 22.6959C24.6137 22.6959 22.2522 21.7848 20.7959 19.9797C20.7959 20.7008 20.7561 21.4274 20.6782 22.115H17.2855C17.3445 21.0035 17.4031 19.6196 17.4031 18.5001V0ZM26.2728 20.3019C29.4863 20.3019 31.6853 17.9602 31.6853 14.4263C31.6853 10.8929 29.4863 8.55088 26.2728 8.55088C23.0774 8.55088 20.8602 10.8929 20.8602 14.4263C20.8602 17.9602 23.0774 20.3019 26.2728 20.3019Z" fill="#0968F6"/>
<path id="Fill 7" fill-rule="evenodd" clip-rule="evenodd" d="M69 6.74326L58.3088 28H54.4375L57.5111 22.0975L49.4655 6.74326H53.5106L59.4312 18.7397L65.335 6.74326H69Z" fill="#92C821"/>
</g>
</svg>
