<svg width="48" height="48" viewBox="0 0 48 48" fill="none" xmlns="http://www.w3.org/2000/svg">
<g id="type=excelsheet">
<g id="Group 31651">
<path id="Vector" d="M29.628 22.9771L12.2327 19.9073V42.5899C12.2327 43.6257 13.0724 44.4655 14.1083 44.4655H44.1245C45.1604 44.4655 46.0001 43.6257 46.0001 42.5899V34.2329L29.628 22.9771Z" fill="#185C37"/>
<path id="Vector_2" d="M29.628 3.53455H14.1083C13.0724 3.53455 12.2327 4.37429 12.2327 5.41017V13.7671L29.628 23.9997L38.8373 27.0694L46.0001 23.9997V13.7671L29.628 3.53455Z" fill="#21A366"/>
<path id="Vector_3" d="M12.2327 13.7671H29.628V23.9997H12.2327V13.7671Z" fill="#107C41"/>
<path id="Vector_4" opacity="0.1" d="M24.6826 11.7206H12.2327V37.302H24.6826C25.7171 37.2986 26.5549 36.4608 26.5582 35.4264V13.5962C26.5549 12.5617 25.7171 11.7239 24.6826 11.7206Z" fill="black"/>
<path id="Vector_5" opacity="0.2" d="M23.6594 12.743H12.2327V38.3244H23.6594C24.6938 38.3211 25.5316 37.4833 25.535 36.4488V14.6187C25.5316 13.5842 24.6938 12.7464 23.6594 12.743Z" fill="black"/>
<path id="Vector_6" opacity="0.2" d="M23.6594 12.743H12.2327V36.2779H23.6594C24.6938 36.2746 25.5316 35.4368 25.535 34.4023V14.6187C25.5316 13.5842 24.6938 12.7464 23.6594 12.743Z" fill="black"/>
<path id="Vector_7" opacity="0.2" d="M22.6361 12.743H12.2327V36.2779H22.6361C23.6706 36.2746 24.5084 35.4368 24.5117 34.4023V14.6187C24.5084 13.5842 23.6706 12.7464 22.6361 12.743Z" fill="black"/>
<path id="Vector_8" d="M3.87562 12.743H22.636C23.6719 12.743 24.5116 13.5828 24.5116 14.6187V33.379C24.5116 34.4149 23.6719 35.2547 22.636 35.2547H3.87562C2.83974 35.2547 2 34.4149 2 33.379V14.6187C2 13.5828 2.83974 12.743 3.87562 12.743Z" fill="url(#paint0_linear_1496_2054)"/>
<path id="Vector_9" d="M7.80908 30.0954L11.7548 23.9814L8.1396 17.9012H11.0477L13.0205 21.7896C13.2027 22.159 13.3275 22.4332 13.395 22.6144H13.4206C13.5502 22.3197 13.6867 22.0335 13.8299 21.7558L15.9388 17.9033H18.6085L14.9013 23.9477L18.7027 30.0954H15.8621L13.5833 25.8274C13.476 25.6458 13.3849 25.4551 13.3111 25.2574H13.2774C13.2106 25.451 13.1221 25.6364 13.0134 25.81L10.667 30.0954H7.80908Z" fill="white"/>
<path id="Vector_10" d="M44.1244 3.53455H29.6279V13.7671H46V5.41017C46 4.37429 45.1603 3.53455 44.1244 3.53455Z" fill="#33C481"/>
<path id="Vector_11" d="M29.6279 23.9996H46V34.2322H29.6279V23.9996Z" fill="#107C41"/>
</g>
</g>
<defs>
<linearGradient id="paint0_linear_1496_2054" x1="5.91072" y1="11.2775" x2="20.6009" y2="36.7202" gradientUnits="userSpaceOnUse">
<stop stop-color="#18884F"/>
<stop offset="0.5" stop-color="#117E43"/>
<stop offset="1" stop-color="#0B6631"/>
</linearGradient>
</defs>
</svg>
