<svg width="48" height="48" viewBox="0 0 48 48" fill="none" xmlns="http://www.w3.org/2000/svg">
<g id="type=gdrive">
<g id="Group 31649">
<path id="Vector" d="M5.3265 38.0375L7.26695 41.3892C7.67017 42.0948 8.24978 42.6492 8.9302 43.0524L15.8604 31.057H2C2 31.8382 2.20161 32.6194 2.60482 33.325L5.3265 38.0375Z" fill="#0066DA"/>
<path id="Vector_2" d="M24.0002 16.9434L17.07 4.948C16.3896 5.35121 15.81 5.90562 15.4068 6.61123L2.60482 28.7876C2.20902 29.478 2.00053 30.2599 2 31.0557H15.8604L24.0002 16.9434Z" fill="#00AC47"/>
<path id="Vector_3" d="M39.0699 43.0524C39.7503 42.6492 40.3299 42.0948 40.7331 41.3892L41.5396 40.0032L45.3953 33.325C45.7985 32.6194 46.0001 31.8382 46.0001 31.057H32.1387L35.0882 36.8531L39.0699 43.0524Z" fill="#EA4335"/>
<path id="Vector_4" d="M23.9995 16.9431L30.9297 4.94771C30.2493 4.5445 29.4681 4.3429 28.6617 4.3429H19.3374C18.531 4.3429 17.7498 4.5697 17.0693 4.94771L23.9995 16.9431Z" fill="#00832D"/>
<path id="Vector_5" d="M32.1403 31.057H15.8606L8.93042 43.0524C9.61084 43.4556 10.3921 43.6572 11.1985 43.6572H36.8024C37.6089 43.6572 38.3901 43.4304 39.0705 43.0524L32.1403 31.057Z" fill="#2684FC"/>
<path id="Vector_6" d="M38.9942 17.6994L32.5932 6.61123C32.19 5.90562 31.6104 5.35121 30.93 4.948L23.9998 16.9434L32.1396 31.0557H45.9748C45.9748 30.2745 45.7732 29.4932 45.37 28.7876L38.9942 17.6994Z" fill="#FFBA00"/>
</g>
</g>
</svg>
