<svg width="48" height="48" viewBox="0 0 48 48" fill="none" xmlns="http://www.w3.org/2000/svg">
<g id="type=googleslide">
<path id="Rectangle 2546" d="M3 11.4C3 6.76081 6.76081 3 11.4 3H36.6C41.2392 3 45 6.76081 45 11.4V36.6C45 41.2392 41.2392 45 36.6 45H11.4C6.76081 45 3 41.2392 3 36.6V11.4Z" fill="#F4B400"/>
<path id="Rectangle 2543" d="M11 17C11 15.8954 11.8954 15 13 15H35C36.1046 15 37 15.8954 37 17V31C37 32.1046 36.1046 33 35 33H13C11.8954 33 11 32.1046 11 31V17Z" fill="white"/>
</g>
</svg>
