<svg width="48" height="48" viewBox="0 0 48 48" fill="none" xmlns="http://www.w3.org/2000/svg">
<g id="type=google sites">
<path id="Rectangle 2546" d="M3 11.4C3 6.76081 6.76081 3 11.4 3H36.6C41.2392 3 45 6.76081 45 11.4V36.6C45 41.2392 41.2392 45 36.6 45H11.4C6.76081 45 3 41.2392 3 36.6V11.4Z" fill="#4659B5"/>
<path id="Rectangle 2805" d="M11 24C11 23.4477 11.4477 23 12 23H28C28.5523 23 29 23.4477 29 24V32C29 32.5523 28.5523 33 28 33H12C11.4477 33 11 32.5523 11 32V24Z" fill="white"/>
<path id="Rectangle 2807" d="M32 24C32 23.4477 32.4477 23 33 23H36C36.5523 23 37 23.4477 37 24V32C37 32.5523 36.5523 33 36 33H33C32.4477 33 32 32.5523 32 32V24Z" fill="white"/>
<path id="Rectangle 2806" d="M11 16C11 15.4477 11.4477 15 12 15H36C36.5523 15 37 15.4477 37 16V19C37 19.5523 36.5523 20 36 20H12C11.4477 20 11 19.5523 11 19V16Z" fill="white"/>
</g>
</svg>
