<svg width="48" height="48" viewBox="0 0 48 48" fill="none" xmlns="http://www.w3.org/2000/svg">
<g id="type=hubarticles" clip-path="url(#clip0_1496_2042)">
<g id="Group 31652">
<path id="Rectangle 2788" d="M9.03547 18.9485C9.06356 17.312 10.3982 16 12.035 16H43.9994C46.2399 16 48.0042 17.8272 48.0001 20C47.9997 20.1793 47.9873 20.3609 47.9622 20.5441L45.1792 37.6801C44.8393 40.1555 42.7243 42 40.2257 42H13.6726C10.8776 42 8.6254 39.7088 8.67336 36.9142L9.03547 18.9485Z" fill="#4D93FC"/>
<path id="Rectangle 2744" d="M0 10.2964C0 7.37128 2.68629 5 6 5L34 5C37.3137 5 40 7.37128 40 10.2964V42H4C1.79086 42 0 40.2091 0 38V10.2964Z" fill="#84B4FB"/>
<path id="Vector" d="M3 11.5C3 10.6716 3.67157 10 4.5 10L24 10C24.8284 10 25.5 10.6716 25.5 11.5C25.5 12.3284 24.8284 13 24 13H4.5C3.67157 13 3 12.3284 3 11.5Z" fill="#D7E6FF"/>
<g id="Group 31650">
<path id="Rectangle 2736" d="M20 25C20 23.3431 18.6569 22 17 22H6C4.34315 22 3 23.3431 3 25V34C3 35.6569 4.34315 37 6 37H17C18.6569 37 20 35.6569 20 34V25Z" fill="white"/>
<path id="Ellipse 177" d="M5 26.5C5 27.8807 6.11929 29 7.5 29C8.88071 29 10 27.8807 10 26.5C10 25.1193 8.88071 24 7.5 24C6.11929 24 5 25.1193 5 26.5Z" fill="#4D93FC"/>
<path id="Intersect" d="M17.1865 29.297C16.861 28.9054 16.261 28.9006 15.9297 29.2873L9.3252 37.0002H17C18.6568 37.0002 19.9999 35.657 20 34.0002V32.6808L17.1865 29.297Z" fill="#0968F6"/>
<path id="Intersect_2" d="M10.7822 31.2415C10.485 30.9173 9.99894 30.9319 9.71875 31.2737L5.26074 36.9036C5.49755 36.9637 5.74449 37.0003 6 37.0003H15.8818L10.7822 31.2415Z" fill="#4D93FC"/>
</g>
<g id="Union">
<path d="M35.5 34C36.3284 34 37 34.6716 37 35.5C37 36.3284 36.3284 37 35.5 37H24.5C23.6716 37 23 36.3284 23 35.5C23 34.6716 23.6716 34 24.5 34H35.5Z" fill="#D7E6FF"/>
<path d="M35.5 28C36.3284 28 37 28.6716 37 29.5C37 30.3284 36.3284 31 35.5 31H24.5C23.6716 31 23 30.3284 23 29.5C23 28.6716 23.6716 28 24.5 28H35.5Z" fill="#D7E6FF"/>
<path d="M35.5 22C36.3284 22 37 22.6716 37 23.5C37 24.3284 36.3284 25 35.5 25H24.5C23.6716 25 23 24.3284 23 23.5C23 22.6716 23.6716 22 24.5 22H35.5Z" fill="#D7E6FF"/>
<path d="M35.5 16C36.3284 16 37 16.6716 37 17.5C37 18.3284 36.3284 19 35.5 19H4.5C3.67157 19 3 18.3284 3 17.5C3 16.6716 3.67157 16 4.5 16H35.5Z" fill="#D7E6FF"/>
</g>
</g>
</g>
<defs>
<clipPath id="clip0_1496_2042">
<rect width="48" height="48" fill="white"/>
</clipPath>
</defs>
</svg>
