<svg width="48" height="48" viewBox="0 0 48 48" fill="none" xmlns="http://www.w3.org/2000/svg">
<g id="type=hubposts">
<g id="Group 31654">
<path id="Rectangle 2744" d="M6 8C6 4.68629 8.68629 2 12 2H36C39.3137 2 42 4.68629 42 8V40C42 43.3137 39.3137 46 36 46H12C8.68629 46 6 43.3137 6 40V8Z" fill="#84B4FB"/>
<path id="vector-shape" d="M11.4298 36.1997C11.6125 36.3073 11.7955 36.4638 12 36.6783C12.2045 36.4638 12.3875 36.3073 12.5702 36.1997C12.8355 36.0434 13.0824 36 13.35 36C13.8928 36 14.315 36.2131 14.5954 36.5328C14.8699 36.8458 15 37.2497 15 37.6358C15 38.338 14.4767 38.822 14.3189 38.9679L12.2121 40.9186C12.095 41.0271 11.905 41.0271 11.7879 40.9186L9.68105 38.9679C9.52332 38.822 9 38.338 9 37.6358C9 37.2497 9.13015 36.8458 9.40461 36.5328C9.68501 36.2131 10.1072 36 10.65 36C10.9176 36 11.1645 36.0434 11.4298 36.1997Z" fill="#0968F6"/>
<g id="Union">
<path d="M37.5 37C38.3284 37 39 37.6716 39 38.5C39 39.3284 38.3284 40 37.5 40H18.5C17.6716 40 17 39.3284 17 38.5C17 37.6716 17.6716 37 18.5 37H37.5Z" fill="#D7E6FF"/>
<path d="M37.5 31C38.3284 31 39 31.6716 39 32.5C39 33.3284 38.3284 34 37.5 34H10.5C9.67157 34 9 33.3284 9 32.5C9 31.6716 9.67157 31 10.5 31H37.5Z" fill="#D7E6FF"/>
</g>
<g id="Group 31653">
<path id="Rectangle 2734" d="M9 10C9 8.34315 10.4391 7 12.2143 7H35.7857C37.5609 7 39 8.34315 39 10V23C39 24.6569 37.5609 26 35.7857 26H12.2143C10.4391 26 9 24.6569 9 23V10Z" fill="#D7E6FF"/>
<path id="Intersect" d="M31.9287 16.3723C32.3316 15.9018 33.0619 15.9067 33.458 16.3831L38.998 23.0491C38.9699 24.6831 37.5436 26.0001 35.7861 26.0003H23.6846L31.9287 16.3723Z" fill="#0968F6"/>
<path id="Intersect_2" d="M23.4951 18.7383C23.8779 18.3105 24.5413 18.2924 24.9473 18.6982L32.25 26H17L23.4951 18.7383Z" fill="#4D93FC"/>
<path id="Ellipse 177" d="M18 12.8773C18 14.5342 16.6569 15.8773 15 15.8773C13.3431 15.8773 12 14.5342 12 12.8773C12 11.2205 13.3431 9.87732 15 9.87732C16.6569 9.87732 18 11.2205 18 12.8773Z" fill="#4D93FC"/>
<path id="Intersect_3" d="M9 17.344C10.5732 17.2805 11.7801 18.0453 12.126 19.095C13.0089 18.9555 14.1421 19.3287 14.3555 20.1409C14.5838 21.0116 13.983 21.7754 13.0342 22.0247C12.0272 22.2891 10.469 22.2553 9 22.2171V17.344Z" fill="white"/>
<path id="Union_2" d="M29.6689 8.55469C31.3248 8.55469 32.6904 9.32455 32.8936 10.3203C33.1461 10.2365 33.4213 10.1895 33.71 10.1895C34.925 10.1895 35.9102 11.0061 35.9102 12.0137C35.9101 13.0212 34.925 13.8379 33.71 13.8379C31.2798 13.8376 28.8471 13.8362 26.416 13.8369C25.5783 13.8369 24.8987 13.2242 24.8984 12.4688C24.8984 11.7131 25.5781 11.0996 26.416 11.0996C26.4541 11.0996 26.4919 11.102 26.5293 11.1045C26.4565 10.9363 26.417 10.7596 26.417 10.5771C26.4172 9.46 27.8731 8.55473 29.6689 8.55469Z" fill="white"/>
</g>
</g>
</g>
</svg>
