<svg width="48" height="48" viewBox="0 0 48 48" fill="none" xmlns="http://www.w3.org/2000/svg">
<g id="type=hubsites">
<path id="Rectangle 2546" d="M2 14C2 7.37258 7.37258 2 14 2H34C40.6274 2 46 7.37258 46 14V34C46 40.6274 40.6274 46 34 46H14C7.37258 46 2 40.6274 2 34V14Z" fill="#C0D9FD"/>
<g id="Union">
<path fill-rule="evenodd" clip-rule="evenodd" d="M37.6045 18.5H31.5401V29.2503H37.9589C39.1611 29.2503 40.082 28.8527 40.7014 28.2207C41.3151 27.5945 41.6012 26.7703 41.6012 25.9671C41.6012 25.1787 41.3925 24.5315 40.9812 24.0396C40.7768 23.795 40.5308 23.5993 40.2547 23.4464C40.3953 23.3356 40.5258 23.2082 40.6417 23.0617C40.976 22.6391 41.1625 22.0923 41.1625 21.4097C41.1625 20.5445 40.8902 19.7898 40.2571 19.2612C39.6364 18.7429 38.737 18.5 37.6045 18.5ZM38.7787 21.6315C38.7787 21.9282 38.6801 22.1524 38.5121 22.3049C38.3416 22.4598 38.0491 22.5863 37.5759 22.5863H33.9236V20.6353H37.4913C38.0534 20.6353 38.3589 20.7565 38.5229 20.9006C38.6775 21.0363 38.7787 21.2567 38.7787 21.6315ZM39.2178 25.8699C39.2178 26.2246 39.126 26.5161 38.9174 26.7212C38.7097 26.9254 38.3136 27.1151 37.5484 27.1151H33.9236V24.7216H37.6754C38.3633 24.7216 38.7316 24.9008 38.929 25.0938C39.1282 25.2887 39.2178 25.5604 39.2178 25.8699Z" fill="#0049B8"/>
<path fill-rule="evenodd" clip-rule="evenodd" d="M21.7221 25.2605V18.5H19.339V25.0805C19.339 26.4816 19.7387 27.6137 20.6201 28.3872C21.4925 29.1528 22.7616 29.5 24.3551 29.5C25.9487 29.5 27.218 29.1528 28.0905 28.3873C28.9721 27.6138 29.3719 26.4816 29.3719 25.0805V18.5H26.9884V25.2605C26.9884 26.0499 26.7253 26.546 26.3165 26.8586C25.8886 27.1857 25.2332 27.3641 24.3551 27.3641C23.4775 27.3641 22.8221 27.1857 22.3942 26.8586C21.9853 26.546 21.7221 26.0498 21.7221 25.2605Z" fill="#0049B8"/>
<path fill-rule="evenodd" clip-rule="evenodd" d="M6.40125 29.2503H8.7847V24.5967H14.7878V29.2503H17.1706V18.5H14.7878V22.4615H8.7847V18.5H6.40125V29.2503Z" fill="#0049B8"/>
</g>
</g>
</svg>
