<svg width="48" height="48" viewBox="0 0 48 48" fill="none" xmlns="http://www.w3.org/2000/svg">
<g id="type=hubtv">
<g id="Group 31671">
<g id="Group 31669">
<path id="Vector 2585" d="M8.95453 46.841V39.7284C8.95453 39.0896 9.47238 38.5718 10.1112 38.5718H15.8012C16.7711 38.5718 17.3103 39.6937 16.7044 40.451L11.0144 47.5635C10.3314 48.4173 8.95453 47.9343 8.95453 46.841Z" fill="#4D93FC"/>
<path id="Vector 2586" d="M39.036 46.841V39.7284C39.036 39.0896 38.5182 38.5718 37.8794 38.5718H32.1893C31.2195 38.5718 30.6803 39.6937 31.2861 40.451L36.9762 47.5635C37.6592 48.4173 39.036 47.9343 39.036 46.841Z" fill="#4D93FC"/>
</g>
<path id="Vector" d="M1 13C0.999996 7.47718 5.47714 3.00001 11 3C19.6667 3 28.3333 3 37 3.00001C42.5228 3.00001 47 7.47716 47 13C47 19 47 25 47 31C47 36.5228 42.5228 41 37 41H11C5.4772 41 1.00008 36.5229 1.00004 31.0001C1 25.0001 1 19.0001 1 13Z" fill="#0968F6"/>
<g id="Frame 36163">
<g clip-path="url(#clip0_1496_2028)">
<rect id="Rectangle 2804" x="6" y="10" width="30" height="24" fill="#D4E5FE"/>
<ellipse id="Ellipse 184" cx="10.3944" cy="15.9523" rx="10.3944" ry="15.9523" transform="matrix(-0.718988 0.695022 0.718988 0.695022 22.9468 -2)" fill="white"/>
</g>
</g>
<path id="Vector 2583" d="M18 26.6936V17.3064C18 16.2563 19.1233 15.6368 19.9487 16.2317L26.4608 20.9253C27.1797 21.4435 27.1797 22.5565 26.4608 23.0747L19.9487 27.7683C19.1233 28.3632 18 27.7437 18 26.6936Z" fill="#0968F6"/>
<g id="Vector_2">
<path d="M43.3673 20.5508C43.3673 21.5536 42.5543 22.3666 41.5515 22.3666C40.5487 22.3666 39.7357 21.5536 39.7357 20.5508C39.7357 19.5479 40.5487 18.735 41.5515 18.735C42.5543 18.735 43.3673 19.5479 43.3673 20.5508Z" fill="white"/>
<path d="M43.3673 26.6034C43.3673 27.6062 42.5543 28.4192 41.5515 28.4192C40.5487 28.4192 39.7357 27.6062 39.7357 26.6034C39.7357 25.6006 40.5487 24.7876 41.5515 24.7876C42.5543 24.7876 43.3673 25.6006 43.3673 26.6034Z" fill="white"/>
</g>
</g>
</g>
<defs>
<clipPath id="clip0_1496_2028">
<rect x="6" y="10" width="30" height="24" rx="12" fill="white"/>
</clipPath>
</defs>
</svg>
