<svg width="48" height="48" viewBox="0 0 48 48" fill="none" xmlns="http://www.w3.org/2000/svg">
<g id="type=jira" clip-path="url(#clip0_1496_2078)">
<path id="path8005" d="M46.6567 22.6562L26.0009 2.00042L23.999 0L1.34282 22.6562C0.602197 23.3989 0.602197 24.6011 1.34282 25.3423L15.5484 39.5474L23.999 48L46.6567 25.3423C47.3979 24.6011 47.3979 23.3989 46.6567 22.6562ZM23.999 31.0947L16.9041 24.0003L23.999 16.9032L31.0955 24.0003L23.999 31.0947Z" fill="#2684FF"/>
<path id="path8015" d="M23.9992 16.9032C19.3541 12.2561 19.3304 4.72976 23.9497 0.0554199L8.42029 15.5788L16.8729 24.0315L23.9992 16.9032Z" fill="url(#paint0_linear_1496_2078)"/>
<path id="path8025" d="M31.1151 23.9799L23.9989 31.0945C26.2415 33.335 27.5028 36.3763 27.5028 39.5471C27.5028 42.718 26.2415 45.7572 23.9989 47.9998L39.5657 32.4325L31.1151 23.9799Z" fill="url(#paint1_linear_1496_2078)"/>
</g>
<defs>
<linearGradient id="paint0_linear_1496_2078" x1="20.9494" y1="11.5088" x2="12.8235" y2="19.6327" gradientUnits="userSpaceOnUse">
<stop stop-color="#0052CC"/>
<stop offset="1" stop-color="#2684FF"/>
</linearGradient>
<linearGradient id="paint1_linear_1496_2078" x1="27.1364" y1="36.4118" x2="35.2461" y2="28.3022" gradientUnits="userSpaceOnUse">
<stop stop-color="#0052CC"/>
<stop offset="1" stop-color="#2684FF"/>
</linearGradient>
<clipPath id="clip0_1496_2078">
<rect width="48" height="48" fill="white"/>
</clipPath>
</defs>
</svg>
