<svg width="48" height="48" viewBox="0 0 48 48" fill="none" xmlns="http://www.w3.org/2000/svg">
<g id="type=webddyyv66itknowledgetest">
<path id="Vector" d="M45.12 24.5001C45.12 22.9401 44.98 21.4401 44.72 20.0001H24V28.5201H35.84C35.32 31.2601 33.76 33.5801 31.42 35.1401V40.6801H38.56C42.72 36.8401 45.12 31.2001 45.12 24.5001Z" fill="#4285F4"/>
<path id="Vector_2" d="M23.9996 45.9979C29.9396 45.9979 34.9196 44.0379 38.5596 40.6779L31.4196 35.1379C29.4596 36.4579 26.9596 37.2579 23.9996 37.2579C18.2796 37.2579 13.4196 33.3979 11.6796 28.1979H4.35962V33.8779C7.97962 41.0579 15.3996 45.9979 23.9996 45.9979Z" fill="#34A853"/>
<path id="Vector_3" d="M11.68 28.1796C11.24 26.8596 10.98 25.4596 10.98 23.9996C10.98 22.5396 11.24 21.1396 11.68 19.8196V14.1396H4.36C2.86 17.0996 2 20.4396 2 23.9996C2 27.5596 2.86 30.8996 4.36 33.8596L10.06 29.4196L11.68 28.1796Z" fill="#FBBC05"/>
<path id="Vector_4" d="M23.9996 10.76C27.2396 10.76 30.1196 11.88 32.4196 14.04L38.7196 7.74C34.8996 4.18 29.9396 2 23.9996 2C15.3996 2 7.97962 6.94 4.35962 14.14L11.6796 19.82C13.4196 14.62 18.2796 10.76 23.9996 10.76Z" fill="#EA4335"/>
</g>
</svg>
