<svg width="48" height="48" viewBox="0 0 48 48" fill="none" xmlns="http://www.w3.org/2000/svg">
<g id="type=Monday">
<g id="Group 31672">
<path id="Vector" d="M5.97102 38.3187C3.81078 38.3234 1.81511 37.1653 0.747318 35.2874C-0.305085 33.4211 -0.241976 31.1264 0.911413 29.3208L11.6688 12.4281C12.7897 10.5798 14.8184 9.47749 16.9791 9.54279C19.1382 9.59453 21.1021 10.8051 22.1184 12.7107C23.1212 14.6069 22.9959 16.8883 21.7948 18.6683L11.0443 35.5609C9.93629 37.2875 8.02251 38.3278 5.97102 38.3187Z" fill="#F62B54"/>
<path id="Vector_2" d="M24.4226 38.3188C22.2529 38.3188 20.2564 37.1587 19.208 35.2944C18.158 33.4331 18.2211 31.1442 19.3721 29.3437L30.109 12.4898C31.2137 10.6149 33.2484 9.48674 35.4238 9.5429C37.6118 9.59076 39.5946 10.8146 40.5974 12.7291C41.5934 14.6435 41.4475 16.9386 40.2099 18.714L29.4754 35.5679C28.3709 37.287 26.4659 38.3241 24.4226 38.3188Z" fill="#FFCC00"/>
<path id="Vector_3" d="M42.4617 38.4599C45.5203 38.4599 47.9999 36.0324 47.9999 33.0379C47.9999 30.0435 45.5203 27.616 42.4617 27.616C39.403 27.616 36.9235 30.0435 36.9235 33.0379C36.9235 36.0324 39.403 38.4599 42.4617 38.4599Z" fill="#00CA72"/>
</g>
</g>
</svg>
