<svg width="48" height="48" viewBox="0 0 48 48" fill="none" xmlns="http://www.w3.org/2000/svg">
<g id="type=Notion">
<g id="Group 31673">
<path id="Vector" d="M6.42748 4.81193L29.6669 3.09542C32.5216 2.85056 33.2549 3.01562 35.0499 4.32054L42.4683 9.54649C43.6917 10.4453 44.0991 10.6901 44.0991 11.6687V40.3302C44.0991 42.1265 43.4468 43.1891 41.1633 43.3512L14.1763 44.9858C12.4628 45.0669 11.6467 44.822 10.7492 43.6784L5.28636 36.5747C4.30652 35.2672 3.90039 34.2886 3.90039 33.1446V7.66787C3.90039 6.19916 4.55264 4.97446 6.42748 4.81193Z" fill="white"/>
<path id="Vector_2" fill-rule="evenodd" clip-rule="evenodd" d="M29.6669 3.09584L6.42748 4.81235C4.55264 4.97446 3.90039 6.19958 3.90039 7.66787V33.1446C3.90039 34.2882 4.30652 35.2668 5.28636 36.5747L10.7492 43.678C11.6467 44.8216 12.4628 45.0669 14.1763 44.9854L41.1638 43.3516C43.4456 43.1891 44.0995 42.1265 44.0995 40.3306V11.6691C44.0995 10.741 43.7328 10.4734 42.6535 9.68131L35.0499 4.32054C33.2553 3.01562 32.5216 2.85056 29.6669 3.09542V3.09584ZM14.7866 11.2C12.5829 11.3483 12.0831 11.3819 10.8315 10.3642L7.64966 7.83335C7.32626 7.50575 7.4888 7.0971 8.30359 7.01562L30.6442 5.38311C32.5203 5.21932 33.4972 5.87325 34.2309 6.44443L38.0625 9.22058C38.2263 9.30332 38.6337 9.79177 38.1436 9.79177L15.0722 11.1807L14.7866 11.2ZM12.2175 40.0858V15.7544C12.2175 14.6918 12.5438 14.2017 13.5207 14.1194L40.0197 12.5679C40.9185 12.4869 41.3246 13.058 41.3246 14.1189V38.2882C41.3246 39.3508 41.1608 40.2496 39.6938 40.3306L14.3359 41.8006C12.8689 41.8817 12.2179 41.3932 12.2179 40.0858H12.2175ZM37.249 17.0589C37.4115 17.7939 37.249 18.5289 36.514 18.6129L35.2918 18.8552V36.8195C34.2305 37.3907 33.2536 37.717 32.4372 37.717C31.1322 37.717 30.8063 37.3084 29.829 36.0845L21.8366 23.51V35.6759L24.3649 36.2483C24.3649 36.2483 24.3649 37.7183 22.325 37.7183L16.7013 38.0446C16.5375 37.717 16.7013 36.901 17.2713 36.7384L18.74 36.3311V20.2454L16.7017 20.0803C16.5379 19.3453 16.9453 18.284 18.0877 18.2017L24.1217 17.7956L32.4376 30.5326V19.2643L30.3179 19.0207C30.1541 18.1206 30.8063 17.4667 31.6211 17.3869L37.249 17.0589Z" fill="black"/>
</g>
</g>
</svg>
