<svg width="48" height="48" viewBox="0 0 48 48" fill="none" xmlns="http://www.w3.org/2000/svg">
<g id="type=powerpoint">
<g id="Group 31650">
<path id="Vector" d="M28.6045 26.0116L25.5347 3.5H25.3055C14.143 3.53259 5.10217 12.5735 5.06958 23.7359V23.9651L28.6045 26.0116Z" fill="#ED6C47"/>
<path id="Vector_2" d="M25.7641 3.5H25.5349V23.9651L35.7675 28.0581L46.0001 23.9651V23.7359C45.9675 12.5735 36.9266 3.53259 25.7641 3.5Z" fill="#FF8F6B"/>
<path id="Vector_3" d="M45.9999 23.9651V24.1902C45.9678 35.3552 36.9248 44.3982 25.7598 44.4302H25.3096C14.1446 44.3982 5.10162 35.3552 5.06958 24.1902V23.9651H45.9999Z" fill="#D35230"/>
<path id="Vector_4" opacity="0.1" d="M26.558 13.5586V35.3949C26.5529 36.1537 26.0931 36.8353 25.3915 37.1242C25.1681 37.2187 24.928 37.2674 24.6854 37.2674H9.89938C9.61287 36.94 9.3366 36.5921 9.08077 36.2442C6.47382 32.7665 5.06621 28.5366 5.0696 24.1902V23.74C5.06362 19.8197 6.20935 15.984 8.36449 12.7093C8.58961 12.3614 8.82495 12.0135 9.08077 11.686H24.6854C25.7164 11.6938 26.5502 12.5277 26.558 13.5586Z" fill="black"/>
<path id="Vector_5" opacity="0.2" d="M25.5353 14.5812V36.4175C25.5352 36.66 25.4865 36.9001 25.392 37.1235C25.1031 37.8251 24.4215 38.2849 23.6627 38.29H10.831C10.5073 37.9613 10.1966 37.62 9.89987 37.2668C9.61336 36.9393 9.33709 36.5914 9.08126 36.2435C6.4743 32.7658 5.0667 28.5359 5.07009 24.1896V23.7393C5.06411 19.819 6.20984 15.9834 8.36498 12.7086H23.6627C24.6937 12.7164 25.5275 13.5502 25.5353 14.5812Z" fill="black"/>
<path id="Vector_6" opacity="0.2" d="M25.5352 14.5812V34.3709C25.5275 35.4019 24.6936 36.2357 23.6627 36.2435H9.08126C6.4743 32.7658 5.0667 28.5359 5.07009 24.1896V23.7393C5.06411 19.819 6.20984 15.9834 8.36498 12.7086H23.6627C24.6936 12.7164 25.5275 13.5502 25.5352 14.5812Z" fill="black"/>
<path id="Vector_7" opacity="0.2" d="M24.512 14.5812V34.3709C24.5042 35.4019 23.6704 36.2357 22.6394 36.2435H9.08126C6.4743 32.7658 5.0667 28.5359 5.07009 24.1896V23.7393C5.06411 19.819 6.20984 15.9834 8.36498 12.7086H22.6394C23.6704 12.7164 24.5042 13.5502 24.512 14.5812Z" fill="black"/>
<path id="Vector_8" d="M3.87562 12.7086H22.636C23.6719 12.7086 24.5116 13.5484 24.5116 14.5842V33.3446C24.5116 34.3805 23.6719 35.2203 22.636 35.2203H3.87562C2.83976 35.2203 2 34.3805 2 33.3446V14.5842C2 13.5484 2.83976 12.7086 3.87562 12.7086Z" fill="url(#paint0_linear_1496_2068)"/>
<path id="Vector_9" d="M13.4614 17.7129C14.6827 17.6305 15.8934 17.9852 16.8771 18.7136C17.6975 19.4461 18.1359 20.5149 18.0661 21.6125C18.0795 22.3755 17.8762 23.1267 17.4798 23.7787C17.0784 24.4196 16.5002 24.9306 15.8149 25.2502C15.0314 25.6146 14.1748 25.7945 13.311 25.7761H10.9381V30.1864H8.50781V17.7129H13.4614ZM10.936 23.8708H13.0276C13.6906 23.9195 14.3485 23.7233 14.8766 23.3193C15.3134 22.9003 15.5423 22.3095 15.5018 21.7056C15.5018 20.3311 14.703 19.6438 13.1053 19.6438H10.936V23.8708H10.936Z" fill="white"/>
</g>
</g>
<defs>
<linearGradient id="paint0_linear_1496_2068" x1="5.91073" y1="11.243" x2="20.6009" y2="36.6859" gradientUnits="userSpaceOnUse">
<stop stop-color="#CA4C28"/>
<stop offset="0.5" stop-color="#C5401E"/>
<stop offset="1" stop-color="#B62F14"/>
</linearGradient>
</defs>
</svg>
