<svg width="48" height="48" viewBox="0 0 48 48" fill="none" xmlns="http://www.w3.org/2000/svg">
<g id="type=sharepoints">
<path id="Vector" d="M24.5112 27.069C31.2929 27.069 36.7905 21.5712 36.7905 14.7893C36.7905 8.00735 31.2929 2.50952 24.5112 2.50952C17.7296 2.50952 12.2319 8.00735 12.2319 14.7893C12.2319 21.5712 17.7296 27.069 24.5112 27.069Z" fill="#036C70"/>
<path id="Vector_2" d="M34.7438 37.2991C40.9604 37.2991 45.9999 32.2595 45.9999 26.0427C45.9999 19.8259 40.9604 14.7863 34.7438 14.7863C28.5273 14.7863 23.4878 19.8259 23.4878 26.0427C23.4878 32.2595 28.5273 37.2991 34.7438 37.2991Z" fill="#1A9BA1"/>
<path id="Vector_3" d="M26.0448 45.4905C30.8484 45.4905 34.7426 41.5962 34.7426 36.7924C34.7426 31.9885 30.8484 28.0942 26.0448 28.0942C21.2411 28.0942 17.3469 31.9885 17.3469 36.7924C17.3469 41.5962 21.2411 45.4905 26.0448 45.4905Z" fill="#37C6D0"/>
<path id="Vector_4" opacity="0.1" d="M26.5596 13.5919V35.4294C26.5545 36.1882 26.0947 36.8698 25.3931 37.1587C25.1697 37.2533 24.9296 37.302 24.687 37.302H17.3603C17.3501 37.1281 17.3501 36.9643 17.3501 36.7904C17.3467 36.6195 17.3535 36.4487 17.3706 36.2787C17.5579 33.0076 19.5729 30.1216 22.5791 28.8188V26.9154C15.8888 25.8552 11.3247 19.572 12.3849 12.8814C12.3922 12.8351 12.3998 12.7888 12.4077 12.7425C12.4587 12.3974 12.5304 12.0557 12.6226 11.7192H24.687C25.7196 11.7232 26.5557 12.5593 26.5596 13.5919Z" fill="black"/>
<path id="Vector_5" opacity="0.2" d="M23.6623 12.7416H12.4062C11.2691 19.42 15.7611 25.7558 22.4393 26.8929C22.6415 26.9273 22.8446 26.9567 23.0483 26.981C19.8761 28.4852 17.5645 32.7576 17.3681 36.2777C17.351 36.4477 17.3442 36.6186 17.3476 36.7894C17.3476 36.9634 17.3476 37.1271 17.3578 37.3011C17.3763 37.645 17.4208 37.9871 17.4908 38.3244H23.6612C24.42 38.3193 25.1016 37.8595 25.3905 37.1578C25.485 36.9344 25.5337 36.6943 25.5338 36.4517V14.6142C25.5299 13.582 24.6944 12.7461 23.6623 12.7416Z" fill="black"/>
<path id="Vector_6" opacity="0.2" d="M23.6639 12.7416H12.4078C11.271 19.4207 15.7637 25.7567 22.4425 26.8936C22.5791 26.9169 22.7161 26.9378 22.8534 26.9564C19.7836 28.5691 17.5631 32.8313 17.3707 36.2778H23.6639C24.6948 36.27 25.5287 35.4361 25.5365 34.4051V14.6142C25.5325 13.5816 24.6964 12.7455 23.6639 12.7416Z" fill="black"/>
<path id="Vector_7" opacity="0.2" d="M22.6402 12.7416H12.4075C11.334 19.0467 15.2847 25.1186 21.484 26.6914C19.1366 29.3734 17.6969 32.7286 17.3704 36.2778H22.6403C23.6728 36.2738 24.5089 35.4377 24.5129 34.4051V14.6142C24.5123 13.5802 23.6742 12.7422 22.6402 12.7416Z" fill="black"/>
<path id="Vector_8" d="M3.87591 12.7416H22.6366C23.6725 12.7416 24.5123 13.5814 24.5123 14.6173V33.3787C24.5123 34.4146 23.6725 35.2544 22.6366 35.2544H3.87591C2.84001 35.2544 2.00024 34.4146 2.00024 33.3787V14.6173C2.00024 13.5814 2.84001 12.7416 3.87591 12.7416Z" fill="url(#paint0_linear_1496_2084)"/>
<path id="Vector_9" d="M10.3754 23.7708C9.93584 23.4792 9.56868 23.091 9.30198 22.6359C9.04356 22.1602 8.91476 21.6248 8.92848 21.0836C8.90546 20.3507 9.15275 19.635 9.62327 19.0727C10.1177 18.5098 10.7568 18.0929 11.4713 17.8673C12.2856 17.5992 13.1385 17.4672 13.9957 17.4764C15.123 17.4352 16.2487 17.5928 17.3214 17.942V20.2956C16.8553 20.0133 16.3477 19.8061 15.8171 19.6816C15.2415 19.5405 14.6508 19.4697 14.0581 19.4708C13.4331 19.4479 12.8121 19.5793 12.25 19.8535C11.816 20.0407 11.5346 20.4677 11.5337 20.9403C11.532 21.227 11.6421 21.5031 11.8407 21.7098C12.0753 21.9536 12.3528 22.152 12.6593 22.2952C13.0004 22.465 13.5121 22.6909 14.1942 22.9726C14.2694 22.9964 14.3426 23.0258 14.4132 23.0606C15.0846 23.323 15.7323 23.6425 16.3493 24.0154C16.8164 24.3035 17.2085 24.6984 17.4933 25.1676C17.7852 25.6996 17.9267 26.301 17.9026 26.9073C17.9359 27.6596 17.7057 28.4001 17.2518 29.001C16.7993 29.5534 16.1944 29.9605 15.5122 30.1716C14.7099 30.4231 13.8725 30.5447 13.0318 30.5318C12.2775 30.5352 11.5243 30.4736 10.7806 30.3476C10.1526 30.2449 9.53981 30.0648 8.9561 29.8114V27.3299C9.51406 27.7284 10.1374 28.0262 10.798 28.2099C11.4564 28.4151 12.1407 28.5247 12.8302 28.5353C13.4684 28.5758 14.1054 28.4406 14.6721 28.1444C15.0691 27.9204 15.3106 27.496 15.3004 27.0403C15.3031 26.7232 15.1776 26.4184 14.9525 26.195C14.6726 25.9202 14.3484 25.6943 13.9937 25.5268C13.5844 25.3221 12.9817 25.0523 12.1856 24.7174C11.5522 24.4627 10.9459 24.1456 10.3754 23.7708Z" fill="white"/>
</g>
<defs>
<linearGradient id="paint0_linear_1496_2084" x1="5.91104" y1="11.2759" x2="20.6023" y2="36.7196" gradientUnits="userSpaceOnUse">
<stop stop-color="#058F92"/>
<stop offset="0.5" stop-color="#038489"/>
<stop offset="1" stop-color="#026D71"/>
</linearGradient>
</defs>
</svg>
