<svg width="48" height="48" viewBox="0 0 48 48" fill="none" xmlns="http://www.w3.org/2000/svg">
<g id="type=sherlockio">
<path id="Vector (Stroke)" fill-rule="evenodd" clip-rule="evenodd" d="M16.4527 21.2725C16.4749 13.6677 22.6473 7.5104 30.257 7.51176C33.192 7.51228 35.9075 8.42668 38.142 9.9859C39.0351 10.609 40.2642 10.3903 40.8873 9.49723C41.5104 8.60421 41.2916 7.37512 40.3986 6.75198C37.5239 4.74602 34.0253 3.56903 30.2577 3.56836C20.4573 3.56662 12.511 11.51 12.5093 21.3105C12.509 22.6625 12.6604 23.9815 12.948 25.2507C13.0937 25.8936 13.5511 26.4212 14.1669 26.6566C14.7827 26.892 15.4754 26.804 16.0128 26.4222L22.7323 21.6486L29.0156 27.9341C30.0203 28.9391 31.6547 28.9222 32.6382 27.8965L43.296 16.7825C43.7889 18.2014 44.0567 19.7263 44.0564 21.3161C44.0551 28.9387 37.8747 35.1169 30.2521 35.1155C25.4313 35.1147 21.1869 32.6439 18.7164 28.8908C18.4109 28.4266 17.9236 28.1129 17.3746 28.0269C16.8255 27.9409 16.2657 28.0906 15.8328 28.4392L1.41052 40.0534C0.562397 40.7364 0.428529 41.9776 1.11152 42.8257C1.79451 43.6738 3.03572 43.8077 3.88384 43.1247L16.7186 32.7889C19.9708 36.6212 24.8261 39.058 30.2514 39.0589C40.0518 39.0607 47.9981 31.1172 47.9998 21.3168C48.0004 18.0458 47.1141 14.9757 45.5669 12.3405C45.2542 11.8079 44.7098 11.4525 44.0963 11.3806C43.4828 11.3086 42.8711 11.5283 42.4435 11.9741L30.7876 24.1289L24.6793 18.0185C23.7872 17.1261 22.3777 17.0275 21.3714 17.7782L16.4527 21.2725Z" fill="#12ACE3"/>
<path id="Rectangle 2767" d="M8.79392 31.8911C10.3647 30.6173 12.6706 30.8581 13.9444 32.4289C15.2182 33.9996 14.9774 36.3055 13.4066 37.5793L5.9682 43.6113C4.39745 44.8851 2.09151 44.6443 0.817739 43.0736C-0.456028 41.5028 -0.215271 39.1969 1.35549 37.9231L8.79392 31.8911Z" fill="#144974"/>
</g>
</svg>
