<svg width="48" height="48" viewBox="0 0 48 48" fill="none" xmlns="http://www.w3.org/2000/svg">
<g id="type=slack">
<path id="Vector" d="M11.8237 29.5407C11.8237 31.9691 9.83989 33.9529 7.41147 33.9529C4.98305 33.9529 2.99927 31.9691 2.99927 29.5407C2.99927 27.1123 4.98305 25.1285 7.41147 25.1285H11.8237V29.5407Z" fill="#E01E5A"/>
<path id="Vector_2" d="M14.0474 29.5407C14.0474 27.1123 16.0311 25.1285 18.4596 25.1285C20.888 25.1285 22.8718 27.1123 22.8718 29.5407V40.5883C22.8718 43.0167 20.888 45.0004 18.4596 45.0004C16.0311 45.0004 14.0474 43.0167 14.0474 40.5883V29.5407Z" fill="#E01E5A"/>
<path id="Vector_3" d="M18.4596 11.8231C16.0311 11.8231 14.0474 9.83936 14.0474 7.41095C14.0474 4.98255 16.0311 2.99878 18.4596 2.99878C20.888 2.99878 22.8718 4.98255 22.8718 7.41095V11.8231H18.4596Z" fill="#36C5F0"/>
<path id="Vector_4" d="M18.4591 14.0471C20.8875 14.0471 22.8713 16.0309 22.8713 18.4593C22.8713 20.8877 20.8875 22.8715 18.4591 22.8715H7.41147C4.98305 22.8715 2.99927 20.8877 2.99927 18.4593C2.99927 16.0309 4.98305 14.0471 7.41147 14.0471H18.4591Z" fill="#36C5F0"/>
<path id="Vector_5" d="M36.1763 18.4593C36.1763 16.0309 38.16 14.0471 40.5885 14.0471C43.0169 14.0471 45.0007 16.0309 45.0007 18.4593C45.0007 20.8877 43.0169 22.8715 40.5885 22.8715H36.1763V18.4593Z" fill="#2EB67D"/>
<path id="Vector_6" d="M33.9526 18.4585C33.9526 20.8869 31.9688 22.8707 29.5404 22.8707C27.112 22.8707 25.1282 20.8869 25.1282 18.4585V7.41095C25.1282 4.98255 27.112 2.99878 29.5404 2.99878C31.9688 2.99878 33.9526 4.98255 33.9526 7.41095V18.4585Z" fill="#2EB67D"/>
<path id="Vector_7" d="M29.5404 36.1769C31.9688 36.1769 33.9526 38.1606 33.9526 40.5891C33.9526 43.0175 31.9688 45.0012 29.5404 45.0012C27.112 45.0012 25.1282 43.0175 25.1282 40.5891V36.1769H29.5404Z" fill="#ECB22E"/>
<path id="Vector_8" d="M29.5404 33.9529C27.112 33.9529 25.1282 31.9691 25.1282 29.5407C25.1282 27.1123 27.112 25.1285 29.5404 25.1285H40.588C43.0164 25.1285 45.0002 27.1123 45.0002 29.5407C45.0002 31.9691 43.0164 33.9529 40.588 33.9529H29.5404Z" fill="#ECB22E"/>
</g>
</svg>
