<svg width="48" height="48" viewBox="0 0 48 48" fill="none" xmlns="http://www.w3.org/2000/svg">
<g id="type=tessio">
<g id="Union">
<path d="M35.1786 0.114381C34.9212 -0.0370095 34.6023 -0.0381948 34.3438 0.111278L27.0751 4.3146C26.679 4.54365 26.5436 5.05041 26.7726 5.4465C27.0017 5.84258 27.5085 5.97799 27.9045 5.74895L34.755 1.78751L41.4842 5.74584C41.8785 5.97783 42.3863 5.84619 42.6183 5.45182C42.8503 5.05745 42.7186 4.54969 42.3243 4.31771L35.1786 0.114381Z" fill="#4D5767"/>
<path d="M44.609 6.47708C44.609 6.17837 44.4482 5.90279 44.1882 5.75583C43.9281 5.60887 43.6091 5.61329 43.3532 5.7674L35.8926 10.2606C35.5007 10.4966 35.3743 11.0057 35.6103 11.3976C35.8464 11.7896 36.3555 11.916 36.7474 11.6799L42.9521 7.94311V17.5549L35.9958 21.6417C35.6013 21.8735 35.4694 22.3811 35.7012 22.7756C35.9329 23.1701 36.4406 23.302 36.8351 23.0703L44.2002 18.7433C44.4535 18.5945 44.609 18.3227 44.609 18.029V6.47708Z" fill="#4D5767"/>
<path d="M13.1682 14.3559C13.5655 14.1289 13.7035 13.6229 13.4765 13.2256C13.2495 12.8283 12.7434 12.6903 12.3462 12.9173L3.91773 17.7336C3.66122 17.8802 3.50218 18.1522 3.50032 18.4477C3.49846 18.7431 3.65407 19.0172 3.90871 19.1669L12.8894 24.4497V33.5734L5.15721 29.0251V21.1561C5.15721 20.6985 4.7863 20.3276 4.32876 20.3276C3.87122 20.3276 3.50031 20.6985 3.50031 21.1561V29.4989C3.50031 29.7925 3.65567 30.0641 3.90871 30.213L13.2978 35.736C13.554 35.8866 13.8712 35.8886 14.1292 35.741C14.3871 35.5935 14.5463 35.3191 14.5463 35.0219V23.9759C14.5463 23.6823 14.3909 23.4107 14.1379 23.2618L5.98037 18.4633L13.1682 14.3559Z" fill="#4D5767"/>
<path d="M23.2899 30.9006C23.6871 30.6736 23.8251 30.1676 23.5981 29.7703C23.3711 29.373 22.8651 29.235 22.4678 29.462L15.516 33.4345C15.1188 33.6615 14.9808 34.1675 15.2078 34.5648C15.4348 34.9621 15.9408 35.1001 16.3381 34.8731L23.2899 30.9006Z" fill="#4D5767"/>
<path d="M35.5337 25.3885C35.5337 24.931 35.1628 24.5601 34.7053 24.5601C34.2477 24.5601 33.8768 24.931 33.8768 25.3885V41.3533L26.7282 45.3247C26.3282 45.5469 26.1841 46.0513 26.4063 46.4513C26.6285 46.8512 27.1329 46.9953 27.5329 46.7731L35.1076 42.565C35.3706 42.4188 35.5337 42.1416 35.5337 41.8408V25.3885Z" fill="#4D5767"/>
<path d="M25.5923 30.7566C25.5923 30.299 25.2214 29.9281 24.7639 29.9281C24.3063 29.9281 23.9354 30.299 23.9354 30.7566V45.7231L16.2032 41.1747V36.6779C16.2032 36.2203 15.8323 35.8494 15.3748 35.8494C14.9172 35.8494 14.5463 36.2203 14.5463 36.6779V41.6486C14.5463 41.9421 14.7017 42.2138 14.9547 42.3626L24.3438 47.8856C24.6 48.0363 24.9172 48.0382 25.1752 47.8907C25.4331 47.7431 25.5923 47.4687 25.5923 47.1715V30.7566Z" fill="#4D5767"/>
</g>
<path id="Subtract" fill-rule="evenodd" clip-rule="evenodd" d="M26.317 6.55721C25.3663 5.99802 24.1873 5.99802 23.2367 6.55721L14.9677 11.4213C14.7146 11.5702 14.5593 11.8418 14.5593 12.1354C14.5593 12.429 14.7146 12.7007 14.9677 12.8495L19.2538 15.3707V19.9461L16.2162 21.7329V16.129C16.2162 15.3461 15.8018 14.6217 15.1271 14.2248L14.5593 13.8908V21.9179C14.5593 22.9943 15.129 23.9903 16.0568 24.5361L24.3568 29.4185C24.616 29.571 24.9376 29.571 25.1969 29.4185L25.6053 29.1782V23.6552L29.4714 21.381L32.532 23.1814L27.799 25.9655C27.1242 26.3624 26.7099 27.0868 26.7099 27.8697V28.5285L33.4969 24.5361C34.4247 23.9903 34.9944 22.9943 34.9944 21.9179V12.1354C34.9944 11.8418 34.839 11.5702 34.586 11.4213L34.1662 11.1744L29.4714 13.9357L25.6053 11.6616V8.06087L30.3228 10.8359C31.0142 11.2426 31.8717 11.2426 32.5631 10.8359L33.0769 10.5337L26.317 6.55721ZM28.6429 19.9461V18.8896C28.6429 18.1067 29.0572 17.3823 29.732 16.9854L30.2998 16.6514V19.9461L33.3375 21.7329V13.5839L25.6053 18.1322V21.7329L28.6429 19.9461ZM23.9484 27.2559L17.0217 23.1814L20.0823 21.381L22.8438 23.0055V22.3467C22.8438 21.5638 22.4295 20.8394 21.7547 20.4425L20.9107 19.9461V16.3454L23.9484 18.1322V27.2559ZM17.0217 12.1354L23.9484 8.06087V11.6616L21.1713 13.2951L21.6852 13.5974C22.3765 14.0041 23.234 14.0041 23.9254 13.5974L24.7768 13.0965L27.8374 14.8969L24.7768 16.6972L17.0217 12.1354Z" fill="#5CBF8E"/>
</g>
</svg>
