<svg width="48" height="48" viewBox="0 0 48 48" fill="none" xmlns="http://www.w3.org/2000/svg">
<g id="type=wiki">
<path id="Vector" d="M3.59537 35.2766C3.14031 36.0187 2.62924 36.8798 2.19518 37.5658C2.00842 37.8814 1.95293 38.2577 2.04064 38.6138C2.12835 38.9699 2.35226 39.2773 2.66424 39.4701L11.7654 45.0707C11.9236 45.1684 12.0996 45.2335 12.2832 45.2625C12.4668 45.2914 12.6543 45.2834 12.8348 45.2391C13.0154 45.1948 13.1852 45.115 13.3346 45.0044C13.4839 44.8937 13.6097 44.7544 13.7047 44.5947C14.0687 43.9856 14.5378 43.1945 15.0489 42.3474C18.6544 36.3967 22.2808 37.1248 28.8197 40.2472L37.8439 44.5387C38.0131 44.6192 38.1967 44.6649 38.3838 44.6732C38.571 44.6815 38.7579 44.6521 38.9335 44.5868C39.1091 44.5215 39.2699 44.4217 39.4062 44.2931C39.5425 44.1646 39.6516 44.01 39.7271 43.8386L44.0607 34.0374C44.2079 33.701 44.2169 33.3202 44.086 32.9771C43.955 32.634 43.6945 32.3561 43.3606 32.2032C41.4564 31.3071 37.6689 29.5219 34.2594 27.8767C21.9938 21.919 11.5694 22.3041 3.59537 35.2766Z" fill="url(#paint0_linear_1496_1997)"/>
<path id="Vector_2" d="M44.4046 13.033C44.8597 12.2909 45.3708 11.4298 45.8048 10.7437C45.9916 10.4281 46.0471 10.0518 45.9594 9.69577C45.8716 9.3397 45.6477 9.03225 45.3358 8.8395L36.2346 3.23885C36.0752 3.13153 35.8955 3.05815 35.7066 3.02327C35.5177 2.98839 35.3236 2.99276 35.1365 3.0361C34.9493 3.07944 34.7731 3.16083 34.6187 3.2752C34.4644 3.38957 34.3352 3.53447 34.2393 3.7009C33.8752 4.30997 33.4062 5.10107 32.8951 5.94816C29.2896 11.8989 25.6632 11.1708 19.1243 8.04841L10.1281 3.77791C9.95894 3.69739 9.77533 3.65164 9.58816 3.64337C9.40099 3.6351 9.21406 3.66448 9.03845 3.72976C8.86284 3.79504 8.70212 3.8949 8.5658 4.02343C8.42948 4.15195 8.32035 4.30653 8.24486 4.47799L3.91128 14.2791C3.76412 14.6156 3.75504 14.9964 3.88599 15.3395C4.01695 15.6826 4.27745 15.9605 4.61138 16.1133C6.51563 17.0094 10.3031 18.7947 13.7126 20.4398C26.0062 26.3905 36.4306 25.9915 44.4046 13.033Z" fill="url(#paint1_linear_1496_1997)"/>
</g>
<defs>
<linearGradient id="paint0_linear_1496_1997" x1="43.8157" y1="47.9621" x2="16.2813" y2="32.1398" gradientUnits="userSpaceOnUse">
<stop offset="0.18" stop-color="#0052CC"/>
<stop offset="1" stop-color="#2684FF"/>
</linearGradient>
<linearGradient id="paint1_linear_1496_1997" x1="4.18432" y1="0.340513" x2="31.7257" y2="16.1697" gradientUnits="userSpaceOnUse">
<stop offset="0.18" stop-color="#0052CC"/>
<stop offset="1" stop-color="#2684FF"/>
</linearGradient>
</defs>
</svg>
