<svg width="48" height="48" viewBox="0 0 48 48" fill="none" xmlns="http://www.w3.org/2000/svg">
<g id="type=worddoc">
<g id="Group 31649">
<path id="Vector" d="M44.1245 3.53491H14.1083C13.0724 3.53491 12.2327 4.37466 12.2327 5.41054V13.7675L29.628 18.8837L46.0001 13.7675V5.41054C46.0001 4.37466 45.1603 3.53491 44.1245 3.53491Z" fill="#41A5EE"/>
<path id="Vector_2" d="M46.0001 13.7675H12.2327V24L29.628 27.0698L46.0001 24V13.7675Z" fill="#2B7CD3"/>
<path id="Vector_3" d="M12.2327 24V34.2326L28.6048 36.2791L46.0001 34.2326V24H12.2327Z" fill="#185ABD"/>
<path id="Vector_4" d="M14.1083 44.4651H44.1245C45.1604 44.4651 46.0001 43.6253 46.0001 42.5895V34.2325H12.2327V42.5895C12.2327 43.6253 13.0724 44.4651 14.1083 44.4651Z" fill="#103F91"/>
<path id="Vector_5" opacity="0.1" d="M24.6826 11.7213H12.2327V37.3027H24.6826C25.7171 37.2993 26.5549 36.4615 26.5582 35.4271V13.5969C26.5549 12.5625 25.7171 11.7247 24.6826 11.7213Z" fill="black"/>
<path id="Vector_6" opacity="0.2" d="M23.6594 12.7454H12.2327V38.3267H23.6594C24.6938 38.3234 25.5316 37.4856 25.535 36.4511V14.621C25.5316 13.5865 24.6938 12.7487 23.6594 12.7454Z" fill="black"/>
<path id="Vector_7" opacity="0.2" d="M23.6594 12.7454H12.2327V36.2802H23.6594C24.6938 36.2769 25.5316 35.4391 25.535 34.4046V14.621C25.5316 13.5865 24.6938 12.7487 23.6594 12.7454Z" fill="black"/>
<path id="Vector_8" opacity="0.2" d="M22.6361 12.7454H12.2327V36.2802H22.6361C23.6706 36.2769 24.5084 35.4391 24.5117 34.4046V14.621C24.5084 13.5865 23.6706 12.7487 22.6361 12.7454Z" fill="black"/>
<path id="Vector_9" d="M3.87563 12.7454H22.636C23.6719 12.7454 24.5116 13.5851 24.5116 14.621V33.3814C24.5116 34.4173 23.6719 35.257 22.636 35.257H3.87563C2.83975 35.257 2 34.4173 2 33.3814V14.621C2 13.5851 2.83975 12.7454 3.87563 12.7454Z" fill="url(#paint0_linear_1496_2048)"/>
<path id="Vector_10" d="M9.69714 27.1294C9.73398 27.419 9.75854 27.6707 9.76979 27.8866H9.81275C9.82912 27.682 9.86323 27.4354 9.91508 27.1468C9.96693 26.8583 10.0137 26.6144 10.0553 26.4152L12.0281 17.9038H14.5791L16.6256 26.2873C16.7445 26.8086 16.8296 27.337 16.8804 27.8692H16.9142C16.9523 27.3536 17.0234 26.8409 17.127 26.3343L18.7591 17.8997H21.0809L18.2137 30.0969H15.501L13.5569 22.0193C13.5006 21.787 13.4361 21.4831 13.3655 21.1096C13.2949 20.7361 13.2509 20.4629 13.2335 20.291H13.1997C13.1772 20.4895 13.1332 20.7842 13.0677 21.1751C13.0022 21.566 12.9497 21.8552 12.9101 22.0428L11.0826 30.0948H8.3239L5.44141 17.9037H7.80511L9.58251 26.4326C9.62244 26.6075 9.66031 26.8409 9.69714 27.1294Z" fill="white"/>
</g>
</g>
<defs>
<linearGradient id="paint0_linear_1496_2048" x1="5.91072" y1="11.2798" x2="20.6009" y2="36.7226" gradientUnits="userSpaceOnUse">
<stop stop-color="#2368C4"/>
<stop offset="0.5" stop-color="#1A5DBE"/>
<stop offset="1" stop-color="#1146AC"/>
</linearGradient>
</defs>
</svg>
