<svg width="48" height="48" viewBox="0 0 48 48" fill="none" xmlns="http://www.w3.org/2000/svg">
<g id="type=Workday">
<g id="Group 1">
<path id="Layer" d="M22.789 0.0379077C27.2869 -0.237926 31.8566 0.999203 35.6055 3.49926C39.0046 5.74397 41.735 8.99439 43.3188 12.7497C43.5659 13.4226 43.4799 14.2169 43.0578 14.8018C42.599 15.47 41.7518 15.829 40.9522 15.7163C40.2048 15.6216 39.5265 15.1125 39.2334 14.4182C38.4969 12.6834 37.4598 11.0774 36.1838 9.69129C33.9316 7.23671 30.9235 5.47771 27.6681 4.7598C25.1568 4.23792 22.5333 4.25601 20.0322 4.82576C16.9693 5.5474 14.1323 7.19176 11.9854 9.49339C10.8228 10.7491 9.79925 12.1488 9.07948 13.707C8.86323 14.1349 8.74114 14.6201 8.41184 14.9816C7.80272 15.7014 6.71002 15.9384 5.85459 15.5452C5.04145 15.1971 4.49617 14.3201 4.54697 13.4359C4.55442 12.8968 4.83611 12.4225 5.05103 11.9448C6.77492 8.31957 9.5697 5.21597 12.9951 3.12315C15.9394 1.30962 19.3359 0.237668 22.789 0.0379077Z" fill="#F49813"/>
<path id="Layer_2" d="M5.16174 19.2604C5.38571 18.9484 5.74586 18.7263 6.13767 18.7385C7.23595 18.739 8.33476 18.7183 9.43224 18.7505C10.014 18.7558 10.5183 19.2458 10.5773 19.8184C11.6629 24.2951 12.7537 28.7704 13.8458 33.2462C14.1845 34.7113 14.6013 36.1613 14.8372 37.6484C15.0715 38.972 15.1165 40.3198 15.3303 41.6465C15.5264 40.1836 15.7825 38.7283 16.1073 37.2883C16.3728 36.0847 16.721 34.902 17.033 33.7099C18.2807 29.0569 19.5306 24.4039 20.7763 19.7495C20.9125 19.188 21.4479 18.7545 22.0275 18.7446C23.2383 18.7249 24.4507 18.7359 25.6615 18.7385C25.9057 18.7398 26.1533 18.7156 26.394 18.768C26.8396 18.8752 27.2314 19.192 27.4192 19.6112C27.5051 19.8065 27.5492 20.0163 27.6069 20.2212C28.4469 23.2795 29.2782 26.3406 30.1118 29.4003C30.3876 30.3911 30.6392 31.3894 30.9398 32.3727C31.567 34.5007 32.0964 36.6576 32.523 38.8345C32.7201 39.7724 32.8012 40.7297 33.0021 41.6668C33.4165 38.5669 33.9634 35.4848 34.6422 32.4318C34.9427 31.0385 35.3151 29.662 35.6149 28.2685C36.2514 25.4221 36.8762 22.5723 37.5221 19.728C37.6181 19.3093 37.9381 18.9558 38.3405 18.8103C38.5741 18.717 38.8302 18.7372 39.0765 18.7377C40.0399 18.7404 41.0039 18.7191 41.9665 18.7492C42.3804 18.7486 42.7674 19.0745 42.8291 19.4844C42.8797 19.7769 42.756 20.0541 42.685 20.331C40.6342 27.9017 38.5807 35.4715 36.5379 43.0441C36.381 43.5667 35.8665 43.9516 35.3218 43.9625C33.646 44.0248 31.9689 43.9639 30.2929 43.9907C29.8094 43.9724 29.3699 43.6069 29.2518 43.1393C28.0001 38.5432 26.7699 33.9413 25.5319 29.342C25.2481 28.2693 24.9324 27.204 24.7108 26.1166C24.4129 24.6983 24.1911 23.2628 24.0756 21.8176C23.8777 23.507 23.6054 25.1888 23.2223 26.8457C21.8041 32.1514 20.3765 37.4545 18.9476 42.7571C18.8766 43.0353 18.8202 43.3393 18.6047 43.5478C18.2424 43.9093 17.7011 44.0006 17.2096 44C15.6424 43.949 14.0733 44.0343 12.5068 43.9625C12.1674 43.9516 11.8392 43.7686 11.6535 43.4848C11.5139 43.2795 11.4838 43.0278 11.416 42.7959C9.38064 35.3835 7.35139 27.9695 5.32001 20.5566C5.18994 20.1371 5.17238 19.6958 5.16174 19.2604Z" fill="#3069B5"/>
</g>
</g>
</svg>
